<svg xmlns="http://www.w3.org/2000/svg" viewBox="0 0 699.4 809.99"><defs><style>.a{fill:none;stroke-linecap:round;stroke-width:16px;}.a,.c,.d{stroke:#000;stroke-miterlimit:10;}.b,.d{fill:#fff;}.c,.d{stroke-width:0.59px;}</style></defs><path d="M963.06,568.94V545.62l-18-3.53a58.18,58.18,0,0,0-3.81-11l13-18.55L938.14,495.6l-17.75,11.29a57.73,57.73,0,0,0-15.7-7.25l-4.06-20H877.31l-3.85,19.66A58.08,58.08,0,0,0,856.4,507l-17.65-11.23-16.07,16.91,13,18.5a57.38,57.38,0,0,0-3.81,11.09l-18,3.52v23.32L833,573a58.3,58.3,0,0,0,6,13l-11.14,16.56L844.3,619,862,607.26a57.41,57.41,0,0,0,10.62,4.16l3.53,20,23.31.6,4.57-20.54A58.63,58.63,0,0,0,915,607.21l17.63,11.68,16.49-16.5L938,585.89a58,58,0,0,0,6-13.07Zm-74.62,19.75a33.23,33.23,0,1,1,33.23-33.23A33.23,33.23,0,0,1,888.44,588.69Z" transform="translate(-631.31 -131.51)"/><path class="a" d="M1100.34,298.76c119.3,49.71,203.16,167.43,203.16,304.74" transform="translate(-631.31 -131.51)"/><path class="a" d="M643.5,603.5c0-135,81.06-251.07,197.17-302.18" transform="translate(-631.31 -131.51)"/><path class="a" d="M1103.47,906.92a331.22,331.22,0,0,1-248.13,4.8" transform="translate(-631.31 -131.51)"/><polygon class="b" points="74.28 617.49 100.86 696.65 128.63 699.61 151.07 617.49 74.28 617.49"/><path class="c" d="M701.16,730.65S710,715.58,710,708.29c0,0-10-11.19-11.82-21.88s-3-25.28-3-25.28-5.32-1-5.32-7.78-1.77-15.56,0-18,5.91,0,5.91,0-2.36-25.28,1.18-33.55,21.86-17.33,21.86-17.33c1.51-1.94,30.64-7.46,38.4-3,13,0,29.6,11.9,33.15,20.16s1.18,33.55,1.18,33.55,4.13-2.43,5.91,0,0,11.18,0,18S792.2,661,792.2,661s-1.18,14.58-3,25.28-11.81,21.87-11.81,21.87c0,7.3,8.86,22.37,8.86,22.37l-42.6,20.55Z" transform="translate(-631.31 -131.51)"/><path d="M701.16,730.65s-67.94,22.78-69.71,30.46,13.29,99.54,47,120.81,80.2,15.8,80.2,15.8Z" transform="translate(-631.31 -131.51)"/><path d="M782.36,728.42s67.94,22.78,69.71,30.46-16.52,94.68-38.38,119.49-85.8,19.5-85.8,19.5Z" transform="translate(-631.31 -131.51)"/><polygon class="d" points="112.38 619.56 154.91 594.75 152.55 631.97 112.38 619.56"/><polygon class="d" points="112.55 619.27 70.02 594.46 72.38 631.67 112.55 619.27"/><polygon points="100.97 622.84 112.68 637.58 122.32 622.63 112.08 619.41 100.97 622.84"/><polygon points="112.68 622.81 97.91 683.07 111.5 724.42 125.08 683.07 112.68 622.81"/><polygon class="b" points="552.79 627.49 579.38 706.65 607.14 709.61 629.59 627.49 552.79 627.49"/><path class="c" d="M1179.67,740.65s8.87-15.07,8.87-22.36c0,0-10-11.19-11.82-21.88s-3-25.28-3-25.28-5.32-1-5.32-7.78-1.77-15.56,0-18,5.91,0,5.91,0-2.37-25.28,1.18-33.55,21.86-17.33,21.86-17.33c1.5-1.94,30.63-7.46,38.39-3,13,0,29.61,11.9,33.15,20.16s1.19,33.55,1.19,33.55,4.13-2.43,5.9,0,0,11.18,0,18-5.31,7.78-5.31,7.78-1.19,14.58-3,25.28S1256,718.15,1256,718.15c0,7.3,8.86,22.37,8.86,22.37l-42.6,20.55Z" transform="translate(-631.31 -131.51)"/><path d="M1179.67,740.65s-67.93,22.78-69.7,30.46,13.29,99.54,47,120.81,80.19,15.8,80.19,15.8Z" transform="translate(-631.31 -131.51)"/><path d="M1260.88,738.42s67.93,22.78,69.71,30.46-16.52,94.68-38.38,119.49-85.8,19.5-85.8,19.5Z" transform="translate(-631.31 -131.51)"/><polygon class="d" points="590.9 629.56 633.43 604.75 631.07 641.97 590.9 629.56"/><polygon class="d" points="591.07 629.27 548.53 604.46 550.9 641.67 591.07 629.27"/><polygon points="579.49 632.84 591.19 647.58 600.84 632.63 590.59 629.41 579.49 632.84"/><polygon points="591.19 632.81 576.42 693.07 590.01 734.42 603.6 693.07 591.19 632.81"/><polygon class="b" points="300.8 169.49 327.38 248.65 355.14 251.61 377.59 169.49 300.8 169.49"/><path class="c" d="M927.67,282.65s8.87-15.07,8.87-22.36c0,0-10-11.19-11.82-21.88s-3-25.28-3-25.28-5.32-1-5.32-7.78-1.77-15.56,0-18,5.91,0,5.91,0-2.37-25.28,1.18-33.55,21.86-17.33,21.86-17.33c1.5-1.94,30.63-7.46,38.39-3,13,0,29.61,11.9,33.15,20.16s1.19,33.55,1.19,33.55,4.13-2.43,5.9,0,0,11.18,0,18-5.31,7.78-5.31,7.78-1.19,14.58-3,25.28S1004,260.15,1004,260.15c0,7.3,8.86,22.37,8.86,22.37l-42.6,20.55Z" transform="translate(-631.31 -131.51)"/><path d="M927.67,282.65s-67.93,22.78-69.7,30.46,13.29,99.54,47,120.81,80.19,15.8,80.19,15.8Z" transform="translate(-631.31 -131.51)"/><path d="M1008.88,280.42s67.93,22.78,69.71,30.46-16.52,94.68-38.38,119.49-85.8,19.5-85.8,19.5Z" transform="translate(-631.31 -131.51)"/><polygon class="d" points="338.9 171.56 381.43 146.75 379.07 183.97 338.9 171.56"/><polygon class="d" points="339.07 171.27 296.53 146.46 298.9 183.67 339.07 171.27"/><polygon points="327.49 174.84 339.19 189.58 348.84 174.63 338.59 171.41 327.49 174.84"/><polygon points="339.19 174.81 324.43 235.07 338.01 276.42 351.6 235.07 339.19 174.81"/><path d="M1174.89,568.6V545.27l-18-3.52a57.82,57.82,0,0,0-3.81-11l13-18.55L1150,495.25l-17.75,11.3a57.7,57.7,0,0,0-15.69-7.26l-4.07-20h-23.32l-3.84,19.67a57.76,57.76,0,0,0-17.07,7.67l-17.65-11.23-16.06,16.91,13,18.5a57.38,57.38,0,0,0-3.81,11.09l-18,3.52v23.32l19.17,3.89a57.9,57.9,0,0,0,6,13l-11.14,16.55,16.49,16.5,17.74-11.75a57.23,57.23,0,0,0,10.63,4.16l3.52,20,23.31.6,4.57-20.54a57.67,57.67,0,0,0,10.89-4.26l17.63,11.68,16.49-16.49-11.1-16.5a57.73,57.73,0,0,0,6-13.07Zm-74.61,19.75a33.23,33.23,0,1,1,33.23-33.23A33.23,33.23,0,0,1,1100.28,588.35Z" transform="translate(-631.31 -131.51)"/><circle cx="359.69" cy="579.49" r="79"/><path class="b" d="M986.71,765.22V751.83c-7.69-.13-15.64-2.52-20.28-5.83l3.18-8.88a35.33,35.33,0,0,0,19.09,5.7c9.41,0,15.77-5.43,15.77-13,0-7.29-5.17-11.8-15-15.77-13.52-5.3-21.87-11.4-21.87-22.93,0-11,7.82-19.35,20-21.34V656.4h8.21v12.86a35.19,35.19,0,0,1,17.23,4.64l-3.31,8.75a31.94,31.94,0,0,0-16.7-4.51c-10.21,0-14.05,6.1-14.05,11.4,0,6.89,4.9,10.34,16.44,15.11,13.65,5.56,20.54,12.46,20.54,24.25,0,10.47-7.29,20.28-20.94,22.53v13.79Z" transform="translate(-631.31 -131.51)"/></svg>