<svg xmlns="http://www.w3.org/2000/svg" viewBox="0 0 1088 839.5"><defs><style>.a,.b,.c,.d,.e{fill:none;stroke:#000;}.a,.b,.c,.e{stroke-linejoin:round;}.a,.b{stroke-width:28px;}.b,.c,.e{stroke-linecap:round;}.c{stroke-width:40px;}.d{stroke-miterlimit:10;}.d,.e{stroke-width:17px;}</style></defs><path class="a" d="M829,652.73c-1.8-114-75.25-238.24-177-285.25L740,163s-20-9-69-18-58,44-144,16-170,22-170,22L470,372h.8C372.61,422.71,303,545.32,303,657c0,145.25,14,263,263,263,173.62,0,233-57.24,253-141.14" transform="translate(-289 -94.5)"/><line class="b" x1="182" y1="277.5" x2="363" y2="277.5"/><path class="b" d="M598,372s60,48,54,76-42,21-19,57a523.48,523.48,0,0,1,36,66" transform="translate(-289 -94.5)"/><path class="b" d="M1130,665H681a127,127,0,1,0,.49,111H1130Z" transform="translate(-289 -94.5)"/><path d="M575.18,645.78v8.6a49.73,49.73,0,0,1,14.61,3.5,28.83,28.83,0,0,1,10.63,8A33.54,33.54,0,0,1,606,674.2a19.24,19.24,0,0,1,1.95,7.88A9.41,9.41,0,0,1,605,689a9.6,9.6,0,0,1-7,2.91q-7.8,0-10.11-8.44-2.62-9.95-12.66-13.21v33.11q9.87,2.71,15.72,4.94a32.73,32.73,0,0,1,10.47,6.45A29.88,29.88,0,0,1,609,725.19a33,33,0,0,1,2.66,13.33,35.35,35.35,0,0,1-4.26,17,33.63,33.63,0,0,1-12.54,12.93,44.44,44.44,0,0,1-19.66,6v19.83a18.73,18.73,0,0,1-.91,6.84c-.61,1.44-1.95,2.15-4,2.15-1.92,0-3.26-.58-4-1.75a10,10,0,0,1-1.16-5.41v-21.5a50.48,50.48,0,0,1-16.28-4.37,38.66,38.66,0,0,1-11.62-8.32,34.75,34.75,0,0,1-6.89-10.35A27.52,27.52,0,0,1,528.05,741a9.66,9.66,0,0,1,3-6.89,10,10,0,0,1,7.44-3.06,10.55,10.55,0,0,1,6,1.67,8.6,8.6,0,0,1,3.43,4.7,98.33,98.33,0,0,0,3.74,10,19.17,19.17,0,0,0,4.81,6.33,21.39,21.39,0,0,0,8.56,4.37v-37a97.63,97.63,0,0,1-17.83-6.57,30,30,0,0,1-11.62-10.31q-4.47-6.69-4.46-17.2,0-13.68,8.72-22.45t25.19-10.18v-8.44q0-6.69,5-6.69T575.18,645.78Zm-10.11,54.61V669.9a28,28,0,0,0-10.43,5.25q-3.74,3.27-3.74,9.87,0,6.3,3.5,9.52T565.07,700.39ZM575.18,724V758.9q8-1.59,12.42-6.45a16.33,16.33,0,0,0,4.38-11.3q0-6.93-4.26-10.71T575.18,724Z" transform="translate(-289 -94.5)"/><rect class="c" x="836" y="518.5" width="232" height="211" rx="25.15"/><path class="c" d="M952,395.5h0a73,73,0,0,1,73,73v50a0,0,0,0,1,0,0H879a0,0,0,0,1,0,0v-50A73,73,0,0,1,952,395.5Z"/><path d="M1265,700.5a24.5,24.5,0,1,0-38.23,20.29L1216,768h49l-10.77-47.21A24.46,24.46,0,0,0,1265,700.5Z" transform="translate(-289 -94.5)"/><rect class="d" x="549" y="8.5" width="312" height="380" rx="31.12"/><rect class="e" x="575.5" y="57" width="260" height="63"/><rect class="e" x="575.5" y="156" width="260" height="192"/><line class="e" x1="705.5" y1="156" x2="705.5" y2="348"/><line class="e" x1="575.5" y1="252" x2="835.5" y2="252"/><line class="e" x1="637.5" y1="181" x2="637.5" y2="224"/><line class="e" x1="659" y1="202.5" x2="616" y2="202.5"/><line class="e" x1="785.5" y1="287.57" x2="755.1" y2="317.98"/><line class="e" x1="785.5" y1="317.98" x2="755.1" y2="287.57"/><line class="e" x1="749.5" y1="203" x2="790.5" y2="203"/><line class="e" x1="616.5" y1="302" x2="657.5" y2="302"/><circle cx="637.5" cy="280" r="8.5"/><circle cx="637.5" cy="324" r="8.5"/></svg>