<?xml version="1.0" encoding="utf-8"?>
<!-- Svg Vector Icons : http://www.onlinewebfonts.com/icon -->
<!DOCTYPE svg PUBLIC "-//W3C//DTD SVG 1.1//EN" "http://www.w3.org/Graphics/SVG/1.1/DTD/svg11.dtd">
<svg version="1.1" xmlns="http://www.w3.org/2000/svg" xmlns:xlink="http://www.w3.org/1999/xlink" x="0px" y="0px" viewBox="0 0 1000 1000" enable-background="new 0 0 1000 1000" xml:space="preserve">
<metadata> Svg Vector Icons : http://www.onlinewebfonts.com/icon </metadata>
<g><g transform="translate(0.000000,511.000000) scale(0.100000,-0.100000)"><path d="M4841,4661.4v-320.1h160h160v320.1v320.1h-160h-160V4661.4z"/><path d="M3796.7,4659.4l-132-80l152-268.1c86-148,162-268.1,172-270.1c10,0,74,32,142,72l124,74l-158,276.1c-88,154-160,278.1-162,276C3932.8,4739.4,3870.8,4701.4,3796.7,4659.4z"/><path d="M5905.2,4463.4l-158-276.1l124-74c68-40,132-72,142-72c10,2,86,122,172,270.1l152,268.1l-136,80l-138,80L5905.2,4463.4z"/><path d="M4768.9,4001.3c-292.1-52-532.1-184-768.2-420.1c-192-192-298.1-358.1-374.1-590.1c-66-204-76-544.1-20-750.2c76-290.1,290.1-622.1,500.1-780.2c124-94,126-154,8-212c-242.1-118-300.1-416.1-118-606.1c42-44,72-90,68-106c-4-14-10-36-14-50c-6-18-40-10-114,24c-58,26-190,70-290.1,98l-186,50l-434.1,368.1c-240,204-948.2,808.2-1576.3,1340.3L310,3339.1l-104-114c-58-62-104-118-104-124S790.1,2507,1632.3,1792.8c842.2-714.1,1526.3-1304.3,1524.3-1312.3c-4-8-308.1-346.1-676.1-752.2c-368.1-404.1-676.1-744.1-682.1-754.2c-8-10-348.1,250-756.2,576.1C634.1-121.6,296,142.5,292,138.5c-2-4-46-60-98-124l-94-118l794.2-636.1l796.2-636.1l48-144c60-174,186-396.1,302.1-526.1c48-54,172-172.1,278.1-262.1l192-166v-178c0-160,6-188,56-274.1c70-118,184-196,332.1-224.1l112-24l12-98c30-234,180-390.1,408.1-422.1c76-10,90-18,90-56c0-86,60-242,122-316.1c74-90,176-146,304.1-164c88-14,94-18,94-74c0-166,120-350.1,268.1-418.1c148-66,406.1-46,532.1,44c48,32,52,32,130-8c108-58,366.1-62,470.1-6c150,78,246,210.1,272.1,368.1c12,82,42,104,140,104c22,0,88,24,146,52c126,64,208,178,244,338.1l24,106l96,10c110,14,228.1,70,292.1,138c60,64,126,214,126,288c0,60,6,64,96,78c200,30,316.1,112,396.1,280.1c30,64,48,136,48,204v102l256.1,220c440.1,380.1,590.1,576.1,696.1,910.2l36,116l786.2,632.1C9527.9-399.6,9882-107.6,9882-99.6c0,10-42,68-92,130c-82,100-96,110-126,84c-268-230-1450.3-1154.2-1460.3-1140.2c-6,10-314.1,350.1-682.1,754.2c-368.1,406.1-672.1,744.2-676.1,752.2s682.1,600.1,1524.3,1312.3C9211.9,2507,9900,3095.1,9900,3101.1s-46,62-104,124l-104,114l-1140.2-972.2c-626.1-532.1-1336.3-1136.2-1576.3-1340.3l-434.1-368.1l-176-48c-98-26-228-70-292.1-98c-80-36-116-44-122-26c-4,14-10,36-14,50c-4,16,26,62,68,106c182,190,124,488.1-118,606.1c-118,58-116,118,8,212c208,156,426.1,496.1,496.1,770.2c130,504.1-28,1024.2-424.1,1390.3c-266.1,248.1-560.1,376.1-900.2,390.1C4959,4015.3,4825,4011.3,4768.9,4001.3z M5279.1,3671.2c690.1-164,1044.2-944.2,722.1-1600.3c-78-162-212-308.1-380.1-420.1l-140-94v-128v-128h-160h-160l2,416.1v414.1l82,60c186,136,266,312.1,220,484.1c-44,166-204,326.1-368.1,370.1c-228,60-492.1-116-560.1-372.1c-46-170,34-346.1,220-482.1l82-60v-414.1l2-416.1h-160h-160v128v128l-140,94c-480.1,318.1-634.1,910.2-380.1,1444.3c106,220,266,378.1,486.1,486.1c90,42,210,86,264.1,96C4905,3707.2,5137,3703.2,5279.1,3671.2z M5121,2701c26-26,40-66,40-120c0-54-14-94-40-120c-26-26-66-40-120-40c-106,0-160,54-160,160c0,54,14,94,40,120c26,26,66,40,120,40S5095,2727,5121,2701z M5791.2,900.6v-70H5001h-790.2l-6,46c-16,108-48,104,800.2,100l786.2-6V900.6z M5631.1,420.5v-70H5001h-630.1l-6,46c-16,108-34,104,640.1,100l626.1-6V420.5z M3728.7,258.5c64-22,170-80,238-126c120-80,1756.4-1436.3,1890.4-1564.3c52-52,64-80,64-146c0-106-106-222-206-222c-78,0-74-2-570.1,396.1c-468.1,374.1-470.1,374.1-606.1,234.1c-340.1-352.1-936.2-230-1068.2,218c-16,54-30,124-30,156v56h-162h-162l14-104c30-218,128-408.1,296.1-574.1l110-106l-382.1-322.1c-212-176-398.1-332.1-416.1-348.1c-30-24-54-10-220,130c-278.1,234-412.1,416.1-488.1,666.1l-36,112l728.1,804.2l728.1,804.2l82-10C3578.7,306.5,3666.7,282.5,3728.7,258.5z M7281.5-485.6c828.2-912.2,764.1-800.2,620.1-1088.2c-98-196-198-310.1-488.1-554.1l-232-196l-174,164c-216,202-328.1,260-506.1,260c-270,0-452.1-150-498.1-410.1c-12-76-16-80-122-100c-142-30-220-70-298.1-162c-72-80-98-138-120-258c-12-80-14-80-116-92c-214-26-366.1-168-410.1-382.1c-22-108-28-116-80-116c-110,0-256-74-386.1-198c-184-172-388.1-322.1-438.1-322.1c-114,0-248.1,154-222.1,256.1c16,64,42,88,664.1,608.1c438.1,366.1,522.1,444.1,506.1,472.1c-10,18-54,74-98,124c-72,82-80,86-114,60c-22-16-254-210-518.1-432.1c-594.1-494.1-664.1-548.1-724.2-548.1c-154,0-274.1,174-206,298.1c10,20,264.1,242,564.1,492.1c300.1,252.1,564.1,472.1,584.1,492.1c38,34,36,38-60,156.1c-94,116-98,118-140,86c-24-18-296.1-246.1-606.1-504.1s-586.1-478.1-614.1-488.1c-146-48-304.1,166.1-228,310.1c12,22,246,226.1,522.1,456.1l498.1,416.1h206c230-2,356.1,36,550.1,160l108,68l62-48c36-28,200-158,364.1-292.1c380.1-308.1,490.1-348.1,752.1-270c220,66,358.1,292.1,332.1,544.1c-22,204.1-68,262.1-524.1,646.1c-230,194-420.1,360.1-422.1,370.1c-6,22,672.1,584.1,804.1,668.1c124,76,360.1,162,430.1,156C6545.3,312.5,6715.4,134.5,7281.5-485.6z M5307.1-45.5c-42-36-128-108-190-162.1l-114-96l-192,162.1l-192,162H4999h382.1L5307.1-45.5z M6563.3-2200c36,0,434.1-382.1,458.1-442.1c22-52,20-72-6-130c-36-74-138-148-208-148c-46,0-138,72-360.1,280.1c-166,156-190,214-134,316.1c40,74,160,152,204,134C6533.3-2196,6553.3-2200,6563.3-2200z M6065.2-2736.1c30-20,140-118,244.1-218.1c208-200,228-242,156-352.1c-56-82-106-112-188-114c-64,0-96,20-280,192c-114,104-218,214-232,242.1c-36,68-16,138,66,220C5907.2-2690.1,5981.2-2680.1,6065.2-2736.1z M5591.1-3294.2c44-40,146-134,226-210c126-120,144-146,144-210c0-56-16-88-78-148c-128-128-178-110-476.1,176c-168,160-186,184-186,250c0,50,16,94,54,136C5375.1-3180.2,5459.1-3178.2,5591.1-3294.2z M5057-3804.3c204.1-182,348.1-328.1,366.1-372.1c40-104-88-264.1-214-264.1c-58,0-98,28-258.1,170c-224,204-270.1,258-270.1,324.1c0,112,110,226,216,226C4945-3720.3,4987-3742.3,5057-3804.3z M4570.9-4350.4c84-62,86-84,20-110c-108-42-270.1,84-270.1,206c0,36,18,80,42,106l42,46l50-98C4480.9-4252.4,4534.9-4320.4,4570.9-4350.4z"/><path d="M2922.6,3781.2l-80-138l276.1-158l276.1-158l74,124c40,68,72,132,72,142c-2,10-122,86-270.1,172l-268.1,152L2922.6,3781.2z"/><path d="M6727.3,3763.2c-146-84-266.1-160-266.1-170c0-10,32-74,72-142l74-124l274.1,158l276.1,158l-76,130c-42,72-80,134-84,136C6995.4,3913.3,6873.4,3847.2,6727.3,3763.2z"/><path d="M2600.5,2581v-160h320.1h320.1v160v160h-320.1h-320.1V2581z"/><path d="M6761.3,2581v-160h320.1h320.1v160v160h-320.1h-320.1V2581z"/><path d="M1348.3,314.5c-96-36-194-112-250-192c-148-206.1-128-394.1,62-582.1c212-214.1,428.1-214.1,640.1,0c214,212,214,428.1,0,640.1C1652.3,330.5,1504.3,372.5,1348.3,314.5z M1600.3-19.6c26-26,40-66,40-120c0-106-54-160-160-160c-54,0-94,14-120,40c-26,26-40,66-40,120c0,106,54,160,160,160C1534.3,20.5,1574.3,6.4,1600.3-19.6z"/><path d="M8381.7,314.5c-100-32-286-224.1-316.1-326.1c-52-176.1-14-298.1,136-448.1c212-214.1,428.1-214.1,640.1,0c214.1,212,214.1,428.1,0,640.1C8693.7,330.5,8557.7,370.5,8381.7,314.5z M8641.7-19.6c26-26,40-66,40-120c0-106-54-160-160-160s-160,54-160,160c0,54,14,94,40,120c26,26,66,40,120,40C8575.7,20.5,8615.7,6.4,8641.7-19.6z"/></g></g>
</svg>